HIERARCHY
ROOT Hips
{
    OFFSET   0.000000   0.000000   0.000000
    CHANNELS 6 Xposition Yposition Zposition Zrotation Xrotation Yrotation
    JOINT Chest
    {
        OFFSET   0.000000   8.007230   0.000000
        CHANNELS 3 Zrotation Xrotation Yrotation
        JOINT Chest2
        {
            OFFSET   0.000000  22.077100   0.000000
            CHANNELS 3 Zrotation Xrotation Yrotation
            JOINT Neck
            {
                OFFSET   0.000000  23.254800   0.000000
                CHANNELS 3 Zrotation Xrotation Yrotation
                JOINT Head
                {
                    OFFSET   0.000010  14.370000   1.956600
                    CHANNELS 3 Zrotation Xrotation Yrotation
                    End Site
                    {
                        OFFSET   0.000000  19.566000   0.000000
                    }
                }
            }
            JOINT LeftCollar
            {
                OFFSET   3.911900  19.017000  -0.467062
                CHANNELS 3 Zrotation Xrotation Yrotation
                JOINT LeftShoulder
                {
                    OFFSET  10.383700   0.000000   0.000000
                    CHANNELS 3 Zrotation Xrotation Yrotation
                    JOINT LeftElbow
                    {
                        OFFSET  26.662100   0.001193   0.000835
                        CHANNELS 3 Zrotation Xrotation Yrotation
                        JOINT LeftWrist
                        {
                            OFFSET  28.869000  -0.000058  -0.000075
                            CHANNELS 3 Zrotation Xrotation Yrotation
                            JOINT LeftFinger0
                            {
                                OFFSET   2.044660  -2.323460   3.252850
                                CHANNELS 3 Zrotation Xrotation Yrotation
                                JOINT LeftFinger01
                                {
                                    OFFSET   3.088130   0.000000   0.000000
                                    CHANNELS 3 Zrotation Xrotation Yrotation
                                    JOINT LeftFinger02
                                    {
                                        OFFSET   2.639450   0.000000   0.000000
                                        CHANNELS 3 Zrotation Xrotation Yrotation
                                        End Site
                                        {
                                            OFFSET   2.582190   0.000000   0.000000
                                        }
                                    }
                                }
                            }
                            JOINT LeftFinger1
                            {
                                OFFSET   8.364480   0.000000   3.252850
                                CHANNELS 3 Zrotation Xrotation Yrotation
                                JOINT LeftFinger11
                                {
                                    OFFSET   4.646920   0.000000   0.000000
                                    CHANNELS 3 Zrotation Xrotation Yrotation
                                    JOINT LeftFinger12
                                    {
                                        OFFSET   2.323460   0.000000   0.000000
                                        CHANNELS 3 Zrotation Xrotation Yrotation
                                        End Site
                                        {
                                            OFFSET   2.273050   0.000000   0.000000
                                        }
                                    }
                                }
                            }
                            JOINT LeftFinger2
                            {
                                OFFSET   8.364490   0.000016   1.078090
                                CHANNELS 3 Zrotation Xrotation Yrotation
                                JOINT LeftFinger21
                                {
                                    OFFSET   5.111620   0.000000   0.000000
                                    CHANNELS 3 Zrotation Xrotation Yrotation
                                    JOINT LeftFinger22
                                    {
                                        OFFSET   2.788150   0.000012   0.000000
                                        CHANNELS 3 Zrotation Xrotation Yrotation
                                        End Site
                                        {
                                            OFFSET   2.727660   0.000000   0.000000
                                        }
                                    }
                                }
                            }
                            JOINT LeftFinger3
                            {
                                OFFSET   7.899780   0.000014  -1.078090
                                CHANNELS 3 Zrotation Xrotation Yrotation
                                JOINT LeftFinger31
                                {
                                    OFFSET   4.646930   0.000000   0.000000
                                    CHANNELS 3 Zrotation Xrotation Yrotation
                                    JOINT LeftFinger32
                                    {
                                        OFFSET   2.323470   0.000000   0.000000
                                        CHANNELS 3 Zrotation Xrotation Yrotation
                                        End Site
                                        {
                                            OFFSET   2.273050   0.000000   0.000000
                                        }
                                    }
                                }
                            }
                            JOINT LeftFinger4
                            {
                                OFFSET   7.435090   0.000000  -3.252850
                                CHANNELS 3 Zrotation Xrotation Yrotation
                                JOINT LeftFinger41
                                {
                                    OFFSET   3.717550   0.000000   0.000000
                                    CHANNELS 3 Zrotation Xrotation Yrotation
                                    JOINT LeftFinger42
                                    {
                                        OFFSET   1.858770   0.000000   0.000000
                                        CHANNELS 3 Zrotation Xrotation Yrotation
                                        End Site
                                        {
                                            OFFSET   1.818440   0.000000   0.000000
                                        }
                                    }
                                }
                            }
                        }
                    }
                }
            }
            JOINT RightCollar
            {
                OFFSET  -3.911900  19.017000  -0.467063
                CHANNELS 3 Zrotation Xrotation Yrotation
                JOINT RightShoulder
                {
                    OFFSET -10.383700   0.000023   0.000000
                    CHANNELS 3 Zrotation Xrotation Yrotation
                    JOINT RightElbow
                    {
                        OFFSET -26.662100   0.001246   0.001011
                        CHANNELS 3 Zrotation Xrotation Yrotation
                        JOINT RightWrist
                        {
                            OFFSET -28.869000  -0.000026  -0.000078
                            CHANNELS 3 Zrotation Xrotation Yrotation
                            JOINT RightFinger0
                            {
                                OFFSET  -2.044660  -2.323490   3.252850
                                CHANNELS 3 Zrotation Xrotation Yrotation
                                JOINT RightFinger01
                                {
                                    OFFSET  -3.088130   0.000000   0.000000
                                    CHANNELS 3 Zrotation Xrotation Yrotation
                                    JOINT RightFinger02
                                    {
                                        OFFSET  -2.639460   0.000000   0.000000
                                        CHANNELS 3 Zrotation Xrotation Yrotation
                                        End Site
                                        {
                                            OFFSET  -2.582190   0.000000   0.000000
                                        }
                                    }
                                }
                            }
                            JOINT RightFinger1
                            {
                                OFFSET  -8.364480   0.000000   3.252850
                                CHANNELS 3 Zrotation Xrotation Yrotation
                                JOINT RightFinger11
                                {
                                    OFFSET  -4.646920   0.000000   0.000000
                                    CHANNELS 3 Zrotation Xrotation Yrotation
                                    JOINT RightFinger12
                                    {
                                        OFFSET  -2.323470   0.000000   0.000000
                                        CHANNELS 3 Zrotation Xrotation Yrotation
                                        End Site
                                        {
                                            OFFSET  -2.273050   0.000000   0.000000
                                        }
                                    }
                                }
                            }
                            JOINT RightFinger2
                            {
                                OFFSET  -8.364480   0.000000   1.078090
                                CHANNELS 3 Zrotation Xrotation Yrotation
                                JOINT RightFinger21
                                {
                                    OFFSET  -5.111620   0.000000   0.000000
                                    CHANNELS 3 Zrotation Xrotation Yrotation
                                    JOINT RightFinger22
                                    {
                                        OFFSET  -2.788160   0.000000   0.000000
                                        CHANNELS 3 Zrotation Xrotation Yrotation
                                        End Site
                                        {
                                            OFFSET  -2.727660   0.000000   0.000000
                                        }
                                    }
                                }
                            }
                            JOINT RightFinger3
                            {
                                OFFSET  -7.899780   0.000000  -1.078090
                                CHANNELS 3 Zrotation Xrotation Yrotation
                                JOINT RightFinger31
                                {
                                    OFFSET  -4.646930   0.000000   0.000000
                                    CHANNELS 3 Zrotation Xrotation Yrotation
                                    JOINT RightFinger32
                                    {
                                        OFFSET  -2.323470   0.000000   0.000000
                                        CHANNELS 3 Zrotation Xrotation Yrotation
                                        End Site
                                        {
                                            OFFSET  -2.273050   0.000000   0.000000
                                        }
                                    }
                                }
                            }
                            JOINT RightFinger4
                            {
                                OFFSET  -7.435090   0.000000  -3.252850
                                CHANNELS 3 Zrotation Xrotation Yrotation
                                JOINT RightFinger41
                                {
                                    OFFSET  -3.717550   0.000000   0.000000
                                    CHANNELS 3 Zrotation Xrotation Yrotation
                                    JOINT RightFinger42
                                    {
                                        OFFSET  -1.858760   0.000000   0.000000
                                        CHANNELS 3 Zrotation Xrotation Yrotation
                                        End Site
                                        {
                                            OFFSET  -1.818440   0.000000   0.000000
                                        }
                                    }
                                }
                            }
                        }
                    }
                }
            }
        }
    }
    JOINT LeftHip
    {
        OFFSET   9.783010   0.000000   0.000000
        CHANNELS 3 Zrotation Xrotation Yrotation
        JOINT LeftKnee
        {
            OFFSET   0.000073 -41.789100   0.001749
            CHANNELS 3 Zrotation Xrotation Yrotation
            JOINT LeftAnkle
            {
                OFFSET   0.000111 -41.133200  -0.000179
                CHANNELS 3 Zrotation Xrotation Yrotation
                JOINT LeftToe
                {
                    OFFSET   0.000000  -6.358960  14.674500
                    CHANNELS 3 Zrotation Xrotation Yrotation
                    End Site
                    {
                        OFFSET   0.000000   0.000000   3.913200
                    }
                }
            }
        }
    }
    JOINT RightHip
    {
        OFFSET  -9.783010   0.000000   0.000000
        CHANNELS 3 Zrotation Xrotation Yrotation
        JOINT RightKnee
        {
            OFFSET   0.000424 -41.789200   0.005205
            CHANNELS 3 Zrotation Xrotation Yrotation
            JOINT RightAnkle
            {
                OFFSET   0.000000 -41.133200  -0.000155
                CHANNELS 3 Zrotation Xrotation Yrotation
                JOINT RightToe
                {
                    OFFSET   0.000000  -6.358960  14.674500
                    CHANNELS 3 Zrotation Xrotation Yrotation
                    End Site
                    {
                        OFFSET   0.000000   0.000000   3.913200
                    }
                }
            }
        }
    }
}
MOTION
Frames: 4
Frame Time:   0.016667
 -0.784630  89.511600  -2.581360  -3.644040 -17.845100  -0.528136  -0.116348  10.733200   2.255960  -0.690366  21.453000   4.660810   5.095080   2.771990  -0.247090   8.424770   5.487900  -3.108240  -0.929703  -1.814440  -0.061089 -69.548500  22.936100  -9.838760  -2.084330  -7.292510 -19.196700  11.218900   0.414024   1.033430  36.440400  26.834700 -54.076100 -32.631500  -0.222822   0.391645 -11.316100  -0.277417   0.081796 -28.862700   5.519550  -9.898430 -24.006900   0.013692  -0.004005 -16.804800   0.009734   0.000696 -28.270200  -1.167800   2.170870 -34.153900  -0.004119   0.001291 -22.746500  -0.002793   0.000469 -28.239100  -1.166620   2.171490 -33.896200   0.012963  -0.027982 -22.574900   0.021695  -0.003411 -32.010700  -1.307640   2.090670 -48.053000   0.031382  -0.045179 -32.003300   0.036421   0.001907   4.271170  -6.517070   5.024940  40.263800   7.666350  36.951300 -35.460600 -23.962800  62.075300  30.497100 -42.632400  10.011700 -41.455600  46.398400  85.237100  41.960600   0.001305  -0.001088  16.501000   0.000786  -0.000221  -0.475420  -0.172679  20.464100   0.000045   0.003947  -0.000253  -0.084973   0.000838   0.000582   8.698320  -0.462655  -3.055200   8.712570  -0.001487   0.000530   5.802600   0.000007  -0.000794  72.154800  -5.111780  -1.644160  72.228200  -0.002122   0.002019  54.171200  -0.001538   0.000613  87.887900  -9.990370  -0.367473 110.000000  -0.006680   0.000687  80.000000  -0.003683   0.002005   3.278490  18.589300   4.770880   1.668730   0.048110   0.815841  -1.967940  -1.375510  -0.514541  -0.000000   0.000000  -0.000000   5.619350  15.773600  -1.229460  -3.056510   6.681390  -6.499070   0.384078  -5.096390   0.108156   0.000000   0.000000   0.000000
 -0.733760  89.502200  -2.446650  -3.271870 -17.801000   0.568245  -0.152519  10.690300   2.072680  -0.726137  21.367700   4.290170   5.103490   2.710090  -0.241901   8.435740   5.364900  -3.172050  -0.919685  -1.696110   0.085352 -69.469200  22.720300  -9.997410  -1.889210  -6.940380 -19.623100  11.370100   0.037442   0.984930  36.526000  27.006300 -54.046400 -32.628500  -0.444664   0.576553 -11.316000  -0.476738   0.061178 -28.964400   5.496290  -9.816850 -24.085500   0.079437  -0.000475 -16.859800   0.055536   0.002092 -28.284200  -1.211780   2.251290 -34.289200   0.040581   0.004603 -22.836600   0.026682   0.005184 -28.249600  -1.210410   2.252010 -33.998400   0.020990  -0.045162 -22.642900   0.036396  -0.005583 -32.159800  -1.361900   2.164980 -48.279900   0.042375  -0.058758 -32.154400   0.047856   0.005628   4.282010  -6.389930   4.822310  41.614100   7.287390  34.215800 -34.891600 -25.589400  65.114700  31.926000 -42.550300  10.936700 -41.807200  46.842000  85.727300  41.899400   0.001359  -0.001189  16.461500   0.000704  -0.000227  -0.668543  -0.228041  18.770300   0.000090   0.003965  -0.000219  -0.142716   0.000985   0.000597   8.417910  -0.497596  -3.376840   8.435320  -0.001510   0.000514   5.617940  -0.000067  -0.000789  71.837400  -5.142520  -1.685690  71.913200  -0.002150   0.002035  53.934900  -0.001569   0.000628  87.644100  -9.989700  -0.409804 110.000000  -0.006765   0.000770  80.000000  -0.003716   0.001933   3.307010  18.465600   4.746320   1.568980   0.000949   0.202533  -2.036640  -1.294090  -0.918330  -0.000000   0.000000  -0.000000   5.518530  15.891500  -1.181670  -2.917290   6.630700  -7.075040   0.348750  -5.244160  -0.402513  -0.000000   0.000000   0.000000
 -0.696370  89.499800  -2.308680  -2.928930 -17.751900   1.606190  -0.183578  10.646400   1.874680  -0.748675  21.280700   3.888350   5.088940   2.661520  -0.236862   8.408860   5.269070  -3.118190  -0.926023  -1.565810   0.272625 -69.446600  22.474100 -10.143200  -1.684440  -6.687620 -20.055800  11.465300  -0.217248   0.986411  36.574500  27.110600 -53.997200 -32.645700  -0.438604   0.496335 -11.324700  -0.444357   0.006858 -29.070100   5.457380  -9.707180 -24.165100   0.102021   0.003164 -16.915500   0.071220   0.005670 -28.296800  -1.266680   2.351940 -34.418300   0.076631   0.010595 -22.922600   0.050237   0.011403 -28.259100  -1.265120   2.352760 -34.096300   0.020442  -0.041119 -22.708100   0.033954  -0.003846 -32.305500  -1.428730   2.258450 -48.502400   0.003153  -0.014057 -32.302600   0.009167  -0.002836   4.316670  -6.099290   4.728830  43.188900   6.671080  31.476200 -34.548500 -26.886800  68.221300  33.185200 -42.318000  11.755000 -41.965200  47.075500  85.946000  41.914200   0.001413  -0.001244  16.477200   0.000621  -0.000234  -0.548981  -0.150731  16.484700   0.000074   0.003195  -0.000177  -0.126751   0.001143   0.000608   8.225890  -0.422800  -2.922310   8.239820  -0.001537   0.000491   5.487740  -0.000137  -0.000787  71.607400  -5.165640  -1.715210  71.684800  -0.002177   0.002050  53.763600  -0.001604   0.000651  87.487300  -9.989230  -0.436565 110.000000  -0.006840   0.000855  80.000000  -0.003734   0.001869   3.391910  18.318200   4.696000   1.434240   0.042577  -0.369161  -2.109390  -1.265140  -1.305100  -0.000000   0.000000  -0.000000   5.440510  15.982900  -1.131450  -2.794870   6.624730  -7.646720   0.323112  -5.413290  -0.874003  -0.000000   0.000000   0.000000
 -0.666684  89.499500  -2.174280  -2.630320 -17.703200   2.522490  -0.207509  10.609900   1.674220  -0.756810  21.208700   3.480400   5.045230   2.623760  -0.231577   8.335730   5.196130  -2.949100  -0.946789  -1.449750   0.463320 -69.461000  22.180900 -10.228700  -1.484400  -6.495150 -20.457600  11.525200  -0.434290   0.996748  36.598000  27.187800 -53.947000 -32.677100  -0.396150   0.346255 -11.340000  -0.348934  -0.032473 -29.177300   5.408080  -9.579770 -24.244500   0.106940   0.006193 -16.971100   0.074606   0.008239 -28.309300  -1.329970   2.467920 -34.551600   0.095085   0.013979 -23.011400   0.062277   0.014850 -28.269000  -1.328220   2.468840 -34.202900   0.016605  -0.029083 -22.779100   0.024862  -0.001209 -32.444900  -1.505130   2.366410 -48.715900  -0.057537   0.051298 -32.444900  -0.048309  -0.017448   4.360720  -5.732950   4.708250  44.699600   5.903040  29.004100 -34.215000 -27.823000  71.158300  34.209000 -41.929500  12.369700 -42.012300  47.173300  86.011900  42.017800   0.001465  -0.001292  16.587000   0.000536  -0.000240  -0.107768  -0.014512  13.779700   0.000058   0.001890  -0.000125  -0.014995   0.001308   0.000613   8.140520  -0.253657  -1.817850   8.144970  -0.001552   0.000463   5.424560  -0.000205  -0.000787  71.385200  -5.187750  -1.743890  71.464100  -0.002202   0.002068  53.598100  -0.001638   0.000675  87.312400  -9.988720  -0.466447 110.000000  -0.006911   0.000938  80.000000  -0.003752   0.001805   3.497730  18.202200   4.653220   1.292290   0.084198  -0.869484  -2.174420  -1.257620  -1.657450  -0.000000   0.000000   0.000000   5.397170  16.050400  -1.079470  -2.702060   6.634180  -8.151690   0.292369  -5.583860  -1.305130  -0.000000   0.000000   0.000000
